<svg xmlns="http://www.w3.org/2000/svg" xmlns:xlink="http://www.w3.org/1999/xlink" width="500" zoomAndPan="magnify" viewBox="0 0 375 374.999991" height="500" preserveAspectRatio="xMidYMid meet" version="1.0"><defs><g/><clipPath id="4e4599bd77"><path d="M 133 105 L 242 105 L 242 120.75 L 133 120.75 Z M 133 105 " clip-rule="nonzero"/></clipPath><clipPath id="47745b51ac"><path d="M 108.949219 37.5 L 265.699219 37.5 L 265.699219 111 L 108.949219 111 Z M 108.949219 37.5 " clip-rule="nonzero"/></clipPath><clipPath id="ae53ffd1d4"><path d="M 46 131 L 177 131 L 177 317 L 46 317 Z M 46 131 " clip-rule="nonzero"/></clipPath><clipPath id="edb97a4e5a"><path d="M 23.054688 147.492188 L 121.5 118.0625 L 177.351562 304.894531 L 78.90625 334.324219 Z M 23.054688 147.492188 " clip-rule="nonzero"/></clipPath><clipPath id="1513ed119d"><path d="M 23.054688 147.492188 L 121.5 118.0625 L 177.351562 304.894531 L 78.90625 334.324219 Z M 23.054688 147.492188 " clip-rule="nonzero"/></clipPath><clipPath id="90acb9bb11"><path d="M 199 131 L 329 131 L 329 318 L 199 318 Z M 199 131 " clip-rule="nonzero"/></clipPath><clipPath id="dbcf4a6c78"><path d="M 253.59375 118.429688 L 352.226562 147.222656 L 297.582031 334.410156 L 198.949219 305.617188 Z M 253.59375 118.429688 " clip-rule="nonzero"/></clipPath><clipPath id="332b601009"><path d="M 351.933594 147.136719 L 253.300781 118.34375 L 198.65625 305.53125 L 297.289062 334.324219 Z M 351.933594 147.136719 " clip-rule="nonzero"/></clipPath><clipPath id="72cdde33a2"><path d="M 169.507812 287.148438 L 205.492188 287.148438 L 205.492188 323.136719 L 169.507812 323.136719 Z M 169.507812 287.148438 " clip-rule="nonzero"/></clipPath><clipPath id="a37d7c0fa6"><path d="M 187.5 287.148438 L 193.226562 299.417969 L 205.492188 305.144531 L 193.226562 310.867188 L 187.5 323.136719 L 181.773438 310.867188 L 169.507812 305.144531 L 181.773438 299.417969 Z M 187.5 287.148438 " clip-rule="nonzero"/></clipPath></defs><g clip-path="url(#4e4599bd77)"><path fill="#00bf63" d="M 187.507812 105.316406 C 187.503906 105.316406 187.5 105.316406 187.5 105.316406 C 187.496094 105.316406 187.492188 105.316406 187.488281 105.316406 C 187.46875 105.316406 187.453125 105.316406 187.4375 105.316406 C 159.089844 105.316406 139.597656 109.351562 133.183594 112.96875 C 139.605469 116.570312 159.078125 120.589844 187.398438 120.625 L 187.597656 120.625 C 215.917969 120.589844 235.390625 116.570312 241.8125 112.96875 C 235.398438 109.351562 215.90625 105.316406 187.558594 105.316406 C 187.542969 105.316406 187.527344 105.316406 187.507812 105.316406 " fill-opacity="1" fill-rule="nonzero"/></g><g clip-path="url(#47745b51ac)"><path fill="#00bf63" d="M 258.234375 69.203125 C 256.816406 70.398438 257.023438 71.371094 256.628906 72.449219 C 256.410156 73.042969 256.167969 73.820312 255.101562 74.753906 C 255.101562 74.753906 241.378906 88.980469 232.183594 85.933594 C 218.566406 81.421875 226.039062 63.882812 226.039062 63.882812 L 227.441406 60.804688 C 228.140625 59.273438 230.230469 58.640625 231.074219 58.125 C 232.613281 57.1875 233.121094 57.507812 234.03125 55.511719 C 235.511719 52.273438 234.128906 46.566406 233.679688 45.367188 C 232.375 46.050781 226.960938 49.042969 225.484375 52.28125 C 224.574219 54.277344 225.710938 55.441406 226.132812 56.949219 C 226.363281 57.78125 226.722656 58.855469 226.023438 60.390625 L 224.621094 63.464844 C 224.621094 63.464844 216.238281 80.320312 203.730469 80.429688 C 188.445312 80.566406 188.390625 55.679688 188.390625 55.679688 C 188.390625 53.851562 189.335938 52.832031 190.015625 52.027344 C 191.246094 50.566406 193.097656 49.695312 193.097656 47.308594 C 193.097656 43.546875 188.839844 38.882812 187.597656 37.601562 L 187.597656 37.578125 C 187.574219 37.554688 187.542969 37.519531 187.519531 37.496094 C 187.519531 37.5 187.511719 37.507812 187.507812 37.511719 C 187.503906 37.507812 187.5 37.503906 187.5 37.5 C 187.496094 37.503906 187.492188 37.507812 187.488281 37.511719 C 187.484375 37.507812 187.476562 37.5 187.476562 37.496094 C 187.453125 37.519531 187.421875 37.554688 187.398438 37.578125 L 187.398438 37.601562 C 186.15625 38.882812 181.898438 43.546875 181.898438 47.308594 C 181.898438 49.695312 183.75 50.566406 184.980469 52.027344 C 185.660156 52.832031 186.605469 53.851562 186.605469 55.679688 C 186.605469 55.679688 186.550781 80.566406 171.265625 80.429688 C 158.757812 80.320312 150.375 63.464844 150.375 63.464844 L 148.972656 60.390625 C 148.273438 58.855469 148.632812 57.78125 148.863281 56.949219 C 149.285156 55.441406 150.421875 54.277344 149.511719 52.28125 C 148.035156 49.042969 142.621094 46.050781 141.316406 45.367188 C 140.867188 46.566406 139.488281 52.273438 140.964844 55.511719 C 141.875 57.507812 142.382812 57.1875 143.921875 58.125 C 144.765625 58.640625 146.855469 59.273438 147.554688 60.804688 L 148.957031 63.882812 C 148.957031 63.882812 156.429688 81.421875 142.8125 85.933594 C 133.621094 88.980469 119.894531 74.753906 119.894531 74.753906 C 118.828125 73.820312 118.585938 73.042969 118.367188 72.449219 C 117.972656 71.371094 118.179688 70.398438 116.761719 69.203125 C 114.308594 67.144531 109.898438 65.917969 108.984375 65.703125 C 109.234375 66.574219 111.125 70.78125 113.371094 72.753906 C 114.761719 73.972656 116.066406 73.566406 117.230469 74.28125 C 130.265625 82.300781 131.304688 110.273438 131.304688 110.273438 L 131.414062 110.273438 C 133.230469 106 157.597656 101.667969 187.414062 101.667969 C 187.429688 101.667969 187.570312 101.667969 187.582031 101.667969 C 217.398438 101.667969 241.765625 106 243.578125 110.273438 L 243.691406 110.273438 C 243.691406 110.273438 244.730469 82.300781 257.765625 74.28125 C 258.929688 73.566406 260.234375 73.972656 261.625 72.753906 C 263.871094 70.78125 265.761719 66.574219 266.011719 65.703125 C 265.097656 65.917969 260.6875 67.144531 258.234375 69.203125 " fill-opacity="1" fill-rule="nonzero"/></g><g clip-path="url(#ae53ffd1d4)"><g clip-path="url(#edb97a4e5a)"><g clip-path="url(#1513ed119d)"><path fill="#00bf63" d="M 175.921875 303.699219 C 168.84375 304.425781 161.75 304.171875 154.753906 303.117188 C 154.753906 303.101562 154.757812 303.085938 154.757812 303.066406 C 155.082031 302.871094 155.207031 302.367188 154.828125 302.128906 C 155.40625 291.144531 148.710938 281.070312 138.222656 277.425781 C 137.863281 277.300781 137.519531 277.652344 137.519531 277.992188 C 137.503906 288.457031 144.425781 298.191406 153.640625 302.804688 C 153.640625 302.851562 153.632812 302.894531 153.628906 302.941406 C 143.789062 301.339844 134.160156 298.164062 125.097656 293.902344 C 131.339844 285.460938 121.628906 274.1875 115.378906 268.761719 C 115 268.433594 114.425781 268.691406 114.417969 269.191406 C 114.296875 277.542969 114.757812 285.585938 120.652344 291.699219 C 116.996094 289.796875 113.445312 287.730469 110.023438 285.523438 C 108.15625 284.316406 106.3125 283.054688 104.5 281.742188 C 111.140625 274.914062 105.71875 264.207031 99.96875 258.613281 C 99.644531 258.300781 99.144531 258.496094 99.023438 258.894531 C 97.324219 264.511719 95.636719 271.675781 98.472656 277.074219 C 95.660156 274.746094 92.949219 272.285156 90.375 269.691406 C 90.386719 269.578125 90.359375 269.453125 90.261719 269.332031 C 89.925781 268.90625 89.578125 268.5 89.214844 268.101562 C 95.640625 261.703125 94.097656 253.101562 91.75 245.183594 C 91.628906 244.78125 91.074219 244.632812 90.789062 244.957031 C 85.808594 250.636719 83.367188 257.863281 85.648438 264.601562 C 81.503906 259.824219 77.824219 254.667969 74.769531 249.164062 C 79.46875 244.023438 82.582031 236.003906 82.179688 229.164062 C 82.152344 228.703125 81.695312 228.496094 81.308594 228.691406 C 75.515625 231.59375 71.949219 237.097656 71.734375 243.109375 C 70.371094 240.078125 69.195312 236.957031 68.238281 233.746094 C 68.007812 232.984375 67.796875 232.21875 67.589844 231.449219 C 73.574219 225.484375 80.707031 217.730469 79.695312 208.644531 C 79.65625 208.304688 79.332031 207.96875 78.960938 208.109375 C 72.792969 210.480469 66.871094 216.691406 65.773438 223.519531 C 65.105469 219.964844 64.613281 216.375 64.292969 212.761719 C 64.488281 212.84375 64.71875 212.824219 64.902344 212.628906 C 70.355469 206.902344 77.578125 202.0625 77.480469 193.28125 C 77.476562 192.929688 77.097656 192.617188 76.75 192.746094 C 71.378906 194.78125 65.960938 198.4375 63.917969 203.699219 C 63.894531 203.636719 63.867188 203.578125 63.84375 203.515625 C 63.804688 199.8125 63.929688 196.113281 64.21875 192.4375 C 64.4375 192.363281 64.628906 192.15625 64.65625 191.902344 C 68.121094 190.972656 70.867188 188.738281 73.042969 185.859375 C 74.21875 184.304688 75.113281 182.554688 75.863281 180.761719 C 76.371094 179.554688 77.207031 177.960938 76.816406 176.660156 C 76.730469 176.371094 76.402344 176.179688 76.109375 176.277344 C 71.238281 177.898438 67.71875 181.875 64.871094 186.058594 C 65.570312 180.65625 66.664062 175.203125 68.261719 169.90625 C 72.464844 168.066406 77.832031 165.269531 78.691406 160.375 C 78.753906 160.015625 78.511719 159.664062 78.125 159.671875 C 75.15625 159.71875 72.636719 161.1875 70.601562 163.21875 C 71.65625 160.59375 72.859375 158.03125 74.222656 155.566406 C 75.582031 156.367188 77.59375 155.753906 78.960938 155.332031 C 81.402344 154.574219 84.046875 153.257812 85.769531 151.332031 C 86.035156 151.039062 85.929688 150.648438 85.625 150.441406 C 82.851562 148.546875 79.808594 149.691406 77 151.015625 C 78.28125 149.117188 79.671875 147.292969 81.191406 145.5625 C 81.269531 145.46875 81.3125 145.371094 81.328125 145.269531 C 84.507812 144.996094 87.847656 143.125 89.230469 140.210938 C 89.371094 139.914062 89.25 139.429688 88.863281 139.386719 C 86.414062 139.109375 84.335938 139.886719 82.453125 141.164062 C 84.109375 137.34375 85.515625 131.234375 80.742188 131.667969 C 74.6875 132.222656 78.828125 142.117188 80.152344 145.023438 C 78.527344 146.90625 77.039062 148.882812 75.675781 150.941406 C 75.894531 146.414062 73.96875 141.441406 70.261719 138.851562 C 70.015625 138.679688 69.609375 138.824219 69.488281 139.082031 C 67.125 144.070312 71.15625 150.242188 73.464844 154.558594 C 71.402344 158.203125 69.691406 162.050781 68.289062 166.03125 C 68.195312 166.167969 68.105469 166.296875 68.015625 166.433594 C 67.105469 160.484375 63.832031 153.882812 57.878906 151.980469 C 57.605469 151.890625 57.230469 152.105469 57.191406 152.398438 C 56.273438 159.242188 63.003906 165.09375 67.058594 169.820312 C 65.640625 174.558594 64.625 179.441406 63.933594 184.34375 C 62.40625 178.089844 57.511719 172.09375 52.085938 169.355469 C 51.78125 169.199219 51.324219 169.347656 51.261719 169.722656 C 50.464844 174.457031 52.089844 178.457031 55.058594 182.105469 C 57.578125 185.203125 61.042969 187.726562 63.089844 191.191406 C 62.925781 191.378906 62.957031 191.679688 63.117188 191.890625 C 62.910156 194.578125 62.785156 197.25 62.738281 199.890625 C 62.730469 200.371094 62.726562 200.851562 62.722656 201.332031 C 60.011719 197.089844 54.816406 193.925781 50.667969 191.675781 C 50.3125 191.480469 49.785156 191.753906 49.828125 192.1875 C 50.5625 200.0625 56.0625 208.074219 63.09375 211.777344 C 63.367188 215.253906 63.800781 218.710938 64.398438 222.128906 C 60.617188 216.53125 53.773438 212.90625 47.722656 210.484375 C 47.351562 210.335938 46.851562 210.527344 46.882812 211 C 47.550781 221.132812 56.710938 229.339844 66.378906 231.023438 C 66.382812 231.03125 66.382812 231.042969 66.386719 231.054688 C 66.179688 231.34375 66.335938 231.683594 66.601562 231.835938 C 67.960938 236.664062 69.707031 241.378906 71.875 245.917969 C 71.886719 245.996094 71.902344 246.070312 71.914062 246.148438 C 67.828125 239.585938 59.917969 236.203125 52.558594 234.492188 C 52.203125 234.410156 51.839844 234.6875 51.855469 235.058594 C 52.242188 245.175781 64.097656 252.839844 73.628906 250.246094 C 73.75 250.210938 73.839844 250.152344 73.902344 250.078125 C 73.929688 250.050781 73.953125 250.027344 73.972656 249.996094 C 75.34375 252.496094 76.851562 254.9375 78.511719 257.308594 C 79.957031 259.367188 81.484375 261.367188 83.082031 263.3125 C 78.425781 260.695312 72.945312 259.371094 67.75 259.242188 C 67.292969 259.230469 67.078125 259.757812 67.277344 260.117188 C 71.6875 268.003906 80.371094 274.527344 89.667969 270.996094 C 89.773438 270.957031 89.847656 270.898438 89.910156 270.828125 C 92.617188 273.539062 95.476562 276.105469 98.453125 278.53125 C 92.125 276.167969 85.429688 278.621094 79.070312 281.722656 C 78.757812 281.875 78.707031 282.410156 78.984375 282.621094 C 86.605469 288.390625 95.78125 287.167969 103.527344 282.449219 C 108.164062 285.832031 113.03125 288.886719 118.046875 291.605469 C 111.75 291.191406 105.214844 296.730469 100.023438 299.257812 C 99.648438 299.441406 99.679688 300.082031 100.054688 300.242188 C 108.351562 303.824219 118.644531 302.335938 124.152344 294.71875 L 124.15625 294.714844 C 131.171875 298.050781 138.582031 300.757812 146.191406 302.589844 C 142.949219 303.207031 139.691406 304.921875 137 306.351562 C 133.246094 308.34375 128.265625 311.214844 126.457031 315.308594 C 126.300781 315.660156 126.453125 316.015625 126.824219 316.132812 C 131.976562 317.789062 138.074219 316.460938 142.980469 314.585938 C 147.621094 312.8125 152.796875 309.558594 153.855469 304.328125 C 153.871094 304.253906 153.871094 304.1875 153.863281 304.125 C 161.167969 305.285156 168.585938 305.59375 175.949219 304.839844 C 176.675781 304.765625 176.65625 303.625 175.925781 303.699219 Z M 175.921875 303.699219 " fill-opacity="1" fill-rule="nonzero"/></g></g></g><g clip-path="url(#90acb9bb11)"><g clip-path="url(#dbcf4a6c78)"><g clip-path="url(#332b601009)"><path fill="#00bf63" d="M 200.078125 304.328125 C 207.160156 305.007812 214.257812 304.707031 221.246094 303.609375 C 221.242188 303.59375 221.242188 303.574219 221.238281 303.558594 C 220.914062 303.363281 220.785156 302.859375 221.164062 302.617188 C 220.511719 291.640625 227.144531 281.523438 237.609375 277.8125 C 237.96875 277.683594 238.3125 278.03125 238.316406 278.371094 C 238.398438 288.835938 231.539062 298.613281 222.355469 303.289062 C 222.355469 303.335938 222.363281 303.378906 222.367188 303.425781 C 232.199219 301.757812 241.804688 298.523438 250.839844 294.199219 C 244.542969 285.800781 254.179688 274.464844 260.398438 269 C 260.773438 268.667969 261.347656 268.921875 261.359375 269.421875 C 261.535156 277.773438 261.125 285.816406 255.269531 291.96875 C 258.914062 290.046875 262.453125 287.953125 265.859375 285.722656 C 267.71875 284.507812 269.554688 283.234375 271.359375 281.90625 C 264.675781 275.125 270.027344 264.382812 275.742188 258.75 C 276.0625 258.433594 276.5625 258.628906 276.6875 259.027344 C 278.425781 264.632812 280.15625 271.785156 277.355469 277.199219 C 280.152344 274.855469 282.847656 272.375 285.40625 269.765625 C 285.390625 269.652344 285.421875 269.53125 285.515625 269.40625 C 285.847656 268.980469 286.195312 268.570312 286.558594 268.171875 C 280.085938 261.8125 281.574219 253.199219 283.871094 245.269531 C 283.988281 244.863281 284.542969 244.710938 284.832031 245.039062 C 289.851562 250.683594 292.335938 257.894531 290.097656 264.648438 C 294.210938 259.84375 297.859375 254.660156 300.875 249.140625 C 296.144531 244.03125 292.980469 236.03125 293.339844 229.1875 C 293.363281 228.726562 293.816406 228.519531 294.207031 228.710938 C 300.019531 231.574219 303.617188 237.054688 303.875 243.0625 C 305.214844 240.023438 306.375 236.894531 307.308594 233.679688 C 307.53125 232.917969 307.738281 232.148438 307.941406 231.378906 C 301.921875 225.453125 294.738281 217.742188 295.691406 208.652344 C 295.726562 208.3125 296.046875 207.972656 296.421875 208.113281 C 302.605469 210.445312 308.566406 216.617188 309.707031 223.4375 C 310.351562 219.878906 310.820312 216.285156 311.117188 212.667969 C 310.925781 212.753906 310.695312 212.734375 310.507812 212.542969 C 305.019531 206.851562 297.765625 202.058594 297.804688 193.273438 C 297.804688 192.921875 298.183594 192.605469 298.535156 192.734375 C 303.917969 194.734375 309.355469 198.355469 311.4375 203.605469 C 311.457031 203.542969 311.484375 203.484375 311.507812 203.421875 C 311.523438 199.71875 311.371094 196.019531 311.0625 192.347656 C 310.84375 192.273438 310.648438 192.066406 310.621094 191.8125 C 307.148438 190.90625 304.390625 188.691406 302.195312 185.824219 C 301.007812 184.277344 300.105469 182.535156 299.339844 180.746094 C 298.828125 179.542969 297.980469 177.953125 298.359375 176.652344 C 298.445312 176.359375 298.773438 176.167969 299.066406 176.261719 C 303.949219 177.855469 307.492188 181.808594 310.367188 185.96875 C 309.632812 180.574219 308.503906 175.128906 306.871094 169.839844 C 302.65625 168.027344 297.273438 165.265625 296.382812 160.378906 C 296.316406 160.015625 296.558594 159.664062 296.941406 159.667969 C 299.914062 159.699219 302.441406 161.148438 304.488281 163.167969 C 303.417969 160.550781 302.199219 157.996094 300.820312 155.539062 C 299.464844 156.347656 297.449219 155.75 296.078125 155.335938 C 293.632812 154.59375 290.980469 153.296875 289.242188 151.382812 C 288.976562 151.089844 289.082031 150.699219 289.382812 150.488281 C 292.144531 148.578125 295.195312 149.699219 298.011719 151.007812 C 296.71875 149.117188 295.316406 147.304688 293.789062 145.582031 C 293.707031 145.488281 293.664062 145.390625 293.648438 145.289062 C 290.464844 145.039062 287.113281 143.1875 285.710938 140.28125 C 285.570312 139.984375 285.6875 139.5 286.074219 139.453125 C 288.523438 139.160156 290.605469 139.925781 292.496094 141.191406 C 290.816406 137.382812 289.371094 131.28125 294.148438 131.683594 C 300.203125 132.199219 296.128906 142.121094 294.820312 145.035156 C 296.460938 146.90625 297.960938 148.875 299.335938 150.921875 C 299.085938 146.398438 300.984375 141.414062 304.675781 138.800781 C 304.917969 138.625 305.324219 138.769531 305.449219 139.027344 C 307.839844 143.996094 303.851562 150.199219 301.570312 154.527344 C 303.660156 158.15625 305.394531 161.996094 306.820312 165.96875 C 306.914062 166.101562 307.007812 166.230469 307.09375 166.367188 C 307.96875 160.414062 311.195312 153.789062 317.136719 151.847656 C 317.410156 151.757812 317.789062 151.96875 317.828125 152.261719 C 318.789062 159.101562 312.101562 164.996094 308.074219 169.746094 C 309.523438 174.476562 310.570312 179.351562 311.292969 184.25 C 312.78125 177.988281 317.636719 171.960938 323.042969 169.183594 C 323.351562 169.027344 323.804688 169.171875 323.871094 169.546875 C 324.699219 174.277344 323.101562 178.289062 320.152344 181.957031 C 317.652344 185.066406 314.207031 187.613281 312.183594 191.089844 C 312.347656 191.277344 312.320312 191.578125 312.160156 191.789062 C 312.386719 194.476562 312.527344 197.148438 312.589844 199.789062 C 312.601562 200.269531 312.609375 200.75 312.613281 201.226562 C 315.296875 196.96875 320.472656 193.773438 324.605469 191.496094 C 324.960938 191.296875 325.488281 191.566406 325.449219 192.003906 C 324.769531 199.878906 319.320312 207.929688 312.3125 211.675781 C 312.058594 215.15625 311.652344 218.617188 311.074219 222.039062 C 314.820312 216.417969 321.640625 212.746094 327.671875 210.285156 C 328.042969 210.132812 328.546875 210.324219 328.515625 210.792969 C 327.914062 220.933594 318.808594 229.195312 309.152344 230.945312 C 309.148438 230.953125 309.144531 230.964844 309.140625 230.976562 C 309.351562 231.261719 309.199219 231.601562 308.933594 231.757812 C 307.605469 236.597656 305.890625 241.320312 303.75 245.875 C 303.742188 245.949219 303.726562 246.027344 303.714844 246.105469 C 307.757812 239.515625 315.644531 236.082031 322.992188 234.324219 C 323.347656 234.238281 323.714844 234.511719 323.703125 234.886719 C 323.378906 245.003906 311.574219 252.742188 302.027344 250.214844 C 301.902344 250.179688 301.8125 250.121094 301.75 250.046875 C 301.722656 250.023438 301.699219 249.996094 301.679688 249.96875 C 300.324219 252.476562 298.832031 254.925781 297.1875 257.304688 C 295.757812 259.375 294.242188 261.386719 292.65625 263.339844 C 297.296875 260.695312 302.769531 259.332031 307.960938 259.171875 C 308.417969 259.160156 308.636719 259.683594 308.4375 260.042969 C 304.082031 267.960938 295.441406 274.539062 286.121094 271.066406 C 286.015625 271.027344 285.9375 270.96875 285.878906 270.902344 C 283.1875 273.628906 280.34375 276.214844 277.382812 278.660156 C 283.699219 276.253906 290.410156 278.664062 296.785156 281.722656 C 297.101562 281.875 297.152344 282.410156 296.878906 282.625 C 289.296875 288.441406 280.109375 287.277344 272.332031 282.609375 C 267.722656 286.019531 262.875 289.105469 257.875 291.859375 C 264.171875 291.40625 270.742188 296.902344 275.949219 299.394531 C 276.324219 299.574219 276.296875 300.21875 275.921875 300.378906 C 267.648438 304.015625 257.347656 302.59375 251.789062 295.011719 L 251.785156 295.007812 C 244.792969 298.390625 237.398438 301.144531 229.804688 303.027344 C 233.046875 303.625 236.316406 305.316406 239.015625 306.726562 C 242.785156 308.695312 247.785156 311.535156 249.621094 315.617188 C 249.777344 315.96875 249.625 316.324219 249.257812 316.445312 C 244.113281 318.132812 238.011719 316.84375 233.09375 315.003906 C 228.441406 313.257812 223.242188 310.035156 222.148438 304.8125 C 222.132812 304.742188 222.132812 304.675781 222.140625 304.609375 C 214.84375 305.816406 207.425781 306.175781 200.0625 305.46875 C 199.332031 305.398438 199.347656 304.257812 200.078125 304.328125 Z M 200.078125 304.328125 " fill-opacity="1" fill-rule="nonzero"/></g></g></g><g clip-path="url(#72cdde33a2)"><g clip-path="url(#a37d7c0fa6)"><path fill="#00bf63" d="M 169.507812 287.148438 L 205.492188 287.148438 L 205.492188 323.136719 L 169.507812 323.136719 Z M 169.507812 287.148438 " fill-opacity="1" fill-rule="nonzero"/></g></g><g fill="#00bf63" fill-opacity="1"><g transform="translate(126.469602, 186.000002)"><g><path d="M 25.09375 8.25 C 21.757812 8.25 18.660156 7.632812 15.796875 6.40625 C 12.929688 5.175781 10.4375 3.460938 8.3125 1.265625 C 6.195312 -0.929688 4.546875 -3.507812 3.359375 -6.46875 C 2.179688 -9.4375 1.59375 -12.664062 1.59375 -16.15625 C 1.59375 -19.75 2.289062 -22.976562 3.6875 -25.84375 C 5.082031 -28.707031 7.101562 -30.972656 9.75 -32.640625 C 12.40625 -34.304688 15.59375 -35.140625 19.3125 -35.140625 C 20.445312 -35.140625 21.675781 -35.015625 23 -34.765625 C 24.332031 -34.523438 25.601562 -34.117188 26.8125 -33.546875 C 28.03125 -32.984375 29.019531 -32.222656 29.78125 -31.265625 C 30.539062 -30.316406 30.921875 -29.132812 30.921875 -27.71875 C 30.921875 -26.582031 30.675781 -25.609375 30.1875 -24.796875 C 29.695312 -23.992188 29.066406 -23.316406 28.296875 -22.765625 C 25.835938 -20.984375 23.707031 -19.175781 21.90625 -17.34375 C 20.113281 -15.519531 18.734375 -13.796875 17.765625 -12.171875 C 16.796875 -10.554688 16.3125 -9.117188 16.3125 -7.859375 C 16.3125 -7.503906 16.40625 -7.15625 16.59375 -6.8125 C 16.789062 -6.476562 17.097656 -6.3125 17.515625 -6.3125 C 17.867188 -6.3125 18.148438 -6.460938 18.359375 -6.765625 C 18.578125 -7.078125 18.703125 -7.394531 18.734375 -7.71875 C 18.859375 -7.332031 18.960938 -6.9375 19.046875 -6.53125 C 19.128906 -6.125 19.171875 -5.710938 19.171875 -5.296875 C 19.171875 -4.390625 18.898438 -3.515625 18.359375 -2.671875 C 17.828125 -1.828125 17.046875 -1.40625 16.015625 -1.40625 C 15.140625 -1.40625 14.4375 -1.785156 13.90625 -2.546875 C 13.375 -3.304688 13.109375 -4.285156 13.109375 -5.484375 C 13.109375 -7.421875 13.648438 -9.320312 14.734375 -11.1875 C 15.816406 -13.050781 17.195312 -14.832031 18.875 -16.53125 C 20.5625 -18.226562 22.328125 -19.769531 24.171875 -21.15625 C 23.710938 -21.09375 23.265625 -21.035156 22.828125 -20.984375 C 22.390625 -20.941406 21.945312 -20.921875 21.5 -20.921875 C 20.757812 -20.921875 19.898438 -21 18.921875 -21.15625 C 17.953125 -21.320312 17.003906 -21.597656 16.078125 -21.984375 C 15.160156 -22.367188 14.398438 -22.882812 13.796875 -23.53125 C 13.203125 -24.1875 12.90625 -25.015625 12.90625 -26.015625 C 12.90625 -27.109375 13.304688 -27.921875 14.109375 -28.453125 C 14.921875 -28.992188 15.832031 -29.265625 16.84375 -29.265625 C 17.644531 -29.265625 18.414062 -29.078125 19.15625 -28.703125 C 19.90625 -28.328125 20.363281 -27.707031 20.53125 -26.84375 C 20.175781 -27.09375 19.800781 -27.21875 19.40625 -27.21875 C 18.957031 -27.21875 18.578125 -27.082031 18.265625 -26.8125 C 17.960938 -26.539062 17.8125 -26.175781 17.8125 -25.71875 C 17.8125 -25.101562 18.019531 -24.609375 18.4375 -24.234375 C 18.863281 -23.867188 19.375 -23.601562 19.96875 -23.4375 C 20.570312 -23.28125 21.113281 -23.203125 21.59375 -23.203125 C 22.925781 -23.203125 24.035156 -23.601562 24.921875 -24.40625 C 25.804688 -25.21875 26.25 -26.300781 26.25 -27.65625 C 26.25 -28.820312 25.894531 -29.773438 25.1875 -30.515625 C 24.476562 -31.265625 23.601562 -31.828125 22.5625 -32.203125 C 21.53125 -32.578125 20.515625 -32.765625 19.515625 -32.765625 C 17.242188 -32.765625 15.316406 -32.238281 13.734375 -31.1875 C 12.148438 -30.132812 10.867188 -28.757812 9.890625 -27.0625 C 8.921875 -25.363281 8.21875 -23.515625 7.78125 -21.515625 C 7.351562 -19.523438 7.140625 -17.578125 7.140625 -15.671875 C 7.140625 -12.535156 7.570312 -9.613281 8.4375 -6.90625 C 9.3125 -4.207031 10.523438 -1.859375 12.078125 0.140625 C 13.628906 2.148438 15.457031 3.710938 17.5625 4.828125 C 19.664062 5.941406 21.945312 6.5 24.40625 6.5 C 24.726562 6.5 25.164062 6.484375 25.71875 6.453125 C 26.269531 6.421875 26.835938 6.335938 27.421875 6.203125 C 28.003906 6.078125 28.492188 5.875 28.890625 5.59375 C 29.296875 5.320312 29.5 4.960938 29.5 4.515625 C 29.5 4.253906 29.394531 4.039062 29.1875 3.875 C 28.976562 3.71875 28.742188 3.640625 28.484375 3.640625 C 28.222656 3.640625 27.984375 3.703125 27.765625 3.828125 C 28.148438 3.117188 28.710938 2.5625 29.453125 2.15625 C 30.203125 1.75 30.976562 1.546875 31.78125 1.546875 C 32.46875 1.546875 33.09375 1.738281 33.65625 2.125 C 34.21875 2.519531 34.5 3.085938 34.5 3.828125 C 34.5 4.765625 34.132812 5.523438 33.40625 6.109375 C 32.6875 6.691406 31.800781 7.132812 30.75 7.4375 C 29.695312 7.75 28.648438 7.960938 27.609375 8.078125 C 26.578125 8.191406 25.738281 8.25 25.09375 8.25 Z M 25.09375 8.25 "/></g></g></g><g fill="#00bf63" fill-opacity="1"><g transform="translate(157.090396, 186.000002)"><g><path d="M -0.96875 -0.140625 C -0.320312 -0.367188 0.191406 -0.8125 0.578125 -1.46875 C 0.972656 -2.132812 1.378906 -3.296875 1.796875 -4.953125 L 6.15625 -21.6875 C 6.644531 -23.53125 6.863281 -24.90625 6.8125 -25.8125 C 6.769531 -26.71875 6.472656 -27.285156 5.921875 -27.515625 L 5.921875 -27.65625 L 13 -27.65625 L 19.125 -4.953125 C 19.507812 -3.398438 19.90625 -2.273438 20.3125 -1.578125 C 20.71875 -0.878906 21.242188 -0.398438 21.890625 -0.140625 L 21.890625 0 L 13.484375 0 L 13.484375 -0.140625 C 14.171875 -0.398438 14.59375 -0.957031 14.75 -1.8125 C 14.914062 -2.675781 14.769531 -3.984375 14.3125 -5.734375 L 14.03125 -6.796875 L 5.78125 -6.796875 L 5.53125 -5.734375 C 5.113281 -4.015625 4.96875 -2.722656 5.09375 -1.859375 C 5.226562 -1.003906 5.648438 -0.429688 6.359375 -0.140625 L 6.359375 0 L -0.96875 0 Z M 6.5 -9.703125 L 13.296875 -9.703125 L 9.703125 -22.859375 Z M 6.5 -9.703125 "/></g></g></g><g fill="#00bf63" fill-opacity="1"><g transform="translate(178.005709, 186.000002)"><g><path d="M 0.1875 -0.140625 C 1 -0.398438 1.570312 -0.941406 1.90625 -1.765625 C 2.25 -2.597656 2.472656 -3.921875 2.578125 -5.734375 L 3.453125 -21.9375 C 3.546875 -23.75 3.453125 -25.066406 3.171875 -25.890625 C 2.898438 -26.710938 2.394531 -27.253906 1.65625 -27.515625 L 1.65625 -27.65625 L 8.6875 -27.65625 L 14.171875 -16.59375 L 19.609375 -27.65625 L 26.15625 -27.65625 L 26.15625 -27.515625 C 25.414062 -27.253906 24.90625 -26.710938 24.625 -25.890625 C 24.351562 -25.066406 24.265625 -23.75 24.359375 -21.9375 L 25.234375 -5.734375 C 25.328125 -3.921875 25.546875 -2.597656 25.890625 -1.765625 C 26.234375 -0.941406 26.804688 -0.398438 27.609375 -0.140625 L 27.609375 0 L 19.078125 0 L 19.078125 -0.140625 C 19.816406 -0.398438 20.320312 -0.941406 20.59375 -1.765625 C 20.875 -2.597656 20.96875 -3.921875 20.875 -5.734375 L 20 -21.5 L 13.4375 -8.15625 L 6.890625 -21.359375 L 6.0625 -5.734375 C 5.96875 -3.921875 6.054688 -2.597656 6.328125 -1.765625 C 6.609375 -0.941406 7.117188 -0.398438 7.859375 -0.140625 L 7.859375 0 L 0.1875 0 Z M 0.1875 -0.140625 "/></g></g></g><g fill="#00bf63" fill-opacity="1"><g transform="translate(205.81192, 186.000002)"><g><path d="M 0.671875 -0.140625 C 1.453125 -0.398438 1.992188 -0.941406 2.296875 -1.765625 C 2.609375 -2.597656 2.765625 -3.921875 2.765625 -5.734375 L 2.765625 -21.9375 C 2.765625 -23.75 2.609375 -25.066406 2.296875 -25.890625 C 1.992188 -26.710938 1.453125 -27.253906 0.671875 -27.515625 L 0.671875 -27.65625 L 12.71875 -27.65625 C 15.082031 -27.65625 16.972656 -27.023438 18.390625 -25.765625 C 19.816406 -24.503906 20.53125 -22.820312 20.53125 -20.71875 C 20.53125 -18.71875 19.859375 -17.046875 18.515625 -15.703125 C 17.171875 -14.359375 15.445312 -13.6875 13.34375 -13.6875 C 12.050781 -13.6875 10.867188 -13.953125 9.796875 -14.484375 C 8.734375 -15.015625 7.847656 -15.75 7.140625 -16.6875 L 7.140625 -5.734375 C 7.140625 -3.921875 7.289062 -2.597656 7.59375 -1.765625 C 7.90625 -0.941406 8.445312 -0.398438 9.21875 -0.140625 L 9.21875 0 L 0.671875 0 Z M 7.140625 -21.6875 C 7.328125 -20.238281 7.847656 -19.0625 8.703125 -18.15625 C 9.566406 -17.25 10.644531 -16.796875 11.9375 -16.796875 C 13.164062 -16.796875 14.128906 -17.179688 14.828125 -17.953125 C 15.523438 -18.734375 15.875 -19.671875 15.875 -20.765625 C 15.875 -22.035156 15.40625 -23.054688 14.46875 -23.828125 C 13.53125 -24.609375 12.300781 -25 10.78125 -25 L 7.140625 -25 Z M 7.140625 -21.6875 "/></g></g></g><g fill="#00bf63" fill-opacity="1"><g transform="translate(226.775767, 186.000002)"><g><path d="M 12.328125 -2.53125 C 13.265625 -2.53125 14.023438 -2.890625 14.609375 -3.609375 C 15.191406 -4.335938 15.617188 -5.304688 15.890625 -6.515625 C 16.171875 -7.734375 16.3125 -9.070312 16.3125 -10.53125 C 16.3125 -12.144531 16.144531 -13.8125 15.8125 -15.53125 C 15.488281 -17.25 15.03125 -18.832031 14.4375 -20.28125 C 13.84375 -21.738281 13.125 -22.910156 12.28125 -23.796875 C 11.4375 -24.691406 10.5 -25.140625 9.46875 -25.140625 C 8.53125 -25.140625 7.757812 -24.773438 7.15625 -24.046875 C 6.5625 -23.316406 6.125 -22.351562 5.84375 -21.15625 C 5.570312 -19.957031 5.4375 -18.632812 5.4375 -17.1875 C 5.4375 -15.53125 5.597656 -13.84375 5.921875 -12.125 C 6.242188 -10.414062 6.703125 -8.832031 7.296875 -7.375 C 7.898438 -5.914062 8.628906 -4.742188 9.484375 -3.859375 C 10.347656 -2.972656 11.296875 -2.53125 12.328125 -2.53125 Z M 1.171875 -14.3125 C 1.171875 -18.644531 2.023438 -22.023438 3.734375 -24.453125 C 5.453125 -26.878906 7.832031 -28.09375 10.875 -28.09375 C 12.8125 -28.09375 14.507812 -27.492188 15.96875 -26.296875 C 17.425781 -25.109375 18.554688 -23.445312 19.359375 -21.3125 C 20.171875 -19.175781 20.578125 -16.679688 20.578125 -13.828125 C 20.578125 -11.015625 20.171875 -8.53125 19.359375 -6.375 C 18.554688 -4.226562 17.425781 -2.554688 15.96875 -1.359375 C 14.507812 -0.160156 12.8125 0.4375 10.875 0.4375 C 8.894531 0.4375 7.175781 -0.164062 5.71875 -1.375 C 4.269531 -2.59375 3.148438 -4.3125 2.359375 -6.53125 C 1.566406 -8.75 1.171875 -11.34375 1.171875 -14.3125 Z M 1.171875 -14.3125 "/></g></g></g><g fill="#00bf63" fill-opacity="1"><g transform="translate(164.912207, 261.317971)"><g><path d="M 0.125 0 C 0.738281 -0.59375 1.429688 -1.304688 2.203125 -2.140625 C 2.984375 -2.984375 3.734375 -3.898438 4.453125 -4.890625 C 5.171875 -5.890625 5.765625 -6.914062 6.234375 -7.96875 C 6.703125 -9.019531 6.9375 -10.046875 6.9375 -11.046875 C 6.9375 -11.828125 6.769531 -12.457031 6.4375 -12.9375 C 6.113281 -13.425781 5.640625 -13.671875 5.015625 -13.671875 C 4.535156 -13.671875 4.171875 -13.53125 3.921875 -13.25 C 3.679688 -12.976562 3.5625 -12.695312 3.5625 -12.40625 C 3.5625 -12.144531 3.640625 -11.914062 3.796875 -11.71875 C 3.953125 -11.53125 4.171875 -11.4375 4.453125 -11.4375 C 4.691406 -11.4375 4.867188 -11.523438 4.984375 -11.703125 C 4.921875 -11.128906 4.671875 -10.691406 4.234375 -10.390625 C 3.804688 -10.085938 3.335938 -9.9375 2.828125 -9.9375 C 2.273438 -9.9375 1.828125 -10.109375 1.484375 -10.453125 C 1.148438 -10.796875 0.984375 -11.265625 0.984375 -11.859375 C 0.984375 -12.460938 1.160156 -13.003906 1.515625 -13.484375 C 1.867188 -13.960938 2.359375 -14.335938 2.984375 -14.609375 C 3.609375 -14.890625 4.3125 -15.03125 5.09375 -15.03125 C 5.820312 -15.03125 6.523438 -14.882812 7.203125 -14.59375 C 7.878906 -14.3125 8.429688 -13.863281 8.859375 -13.25 C 9.296875 -12.644531 9.515625 -11.859375 9.515625 -10.890625 C 9.515625 -10.148438 9.285156 -9.304688 8.828125 -8.359375 C 8.378906 -7.410156 7.738281 -6.425781 6.90625 -5.40625 C 6.082031 -4.382812 5.097656 -3.363281 3.953125 -2.34375 L 6.578125 -2.34375 C 7.234375 -2.34375 7.785156 -2.445312 8.234375 -2.65625 C 8.691406 -2.875 9.0625 -3.132812 9.34375 -3.4375 C 9.632812 -3.75 9.832031 -4.039062 9.9375 -4.3125 L 10.015625 -4.296875 L 9.15625 0.28125 C 9 0.09375 8.742188 0 8.390625 0 Z M 0.125 0 "/></g></g></g><g fill="#00bf63" fill-opacity="1"><g transform="translate(175.802942, 261.317971)"><g><path d="M 6.234375 -1.25 C 7.054688 -1.25 7.703125 -1.804688 8.171875 -2.921875 C 8.648438 -4.046875 8.890625 -5.539062 8.890625 -7.40625 C 8.890625 -9.28125 8.648438 -10.773438 8.171875 -11.890625 C 7.703125 -13.015625 7.054688 -13.578125 6.234375 -13.578125 C 5.441406 -13.578125 4.800781 -13.015625 4.3125 -11.890625 C 3.832031 -10.773438 3.59375 -9.28125 3.59375 -7.40625 C 3.59375 -5.539062 3.832031 -4.046875 4.3125 -2.921875 C 4.800781 -1.804688 5.441406 -1.25 6.234375 -1.25 Z M 1.046875 -7.40625 C 1.046875 -9.78125 1.507812 -11.644531 2.4375 -13 C 3.363281 -14.363281 4.628906 -15.046875 6.234375 -15.046875 C 7.847656 -15.046875 9.117188 -14.363281 10.046875 -13 C 10.972656 -11.644531 11.4375 -9.78125 11.4375 -7.40625 C 11.4375 -5.050781 10.972656 -3.1875 10.046875 -1.8125 C 9.117188 -0.445312 7.847656 0.234375 6.234375 0.234375 C 4.628906 0.234375 3.363281 -0.445312 2.4375 -1.8125 C 1.507812 -3.1875 1.046875 -5.050781 1.046875 -7.40625 Z M 1.046875 -7.40625 "/></g></g></g><g fill="#00bf63" fill-opacity="1"><g transform="translate(188.27921, 261.317971)"><g><path d="M 0.125 0 C 0.738281 -0.59375 1.429688 -1.304688 2.203125 -2.140625 C 2.984375 -2.984375 3.734375 -3.898438 4.453125 -4.890625 C 5.171875 -5.890625 5.765625 -6.914062 6.234375 -7.96875 C 6.703125 -9.019531 6.9375 -10.046875 6.9375 -11.046875 C 6.9375 -11.828125 6.769531 -12.457031 6.4375 -12.9375 C 6.113281 -13.425781 5.640625 -13.671875 5.015625 -13.671875 C 4.535156 -13.671875 4.171875 -13.53125 3.921875 -13.25 C 3.679688 -12.976562 3.5625 -12.695312 3.5625 -12.40625 C 3.5625 -12.144531 3.640625 -11.914062 3.796875 -11.71875 C 3.953125 -11.53125 4.171875 -11.4375 4.453125 -11.4375 C 4.691406 -11.4375 4.867188 -11.523438 4.984375 -11.703125 C 4.921875 -11.128906 4.671875 -10.691406 4.234375 -10.390625 C 3.804688 -10.085938 3.335938 -9.9375 2.828125 -9.9375 C 2.273438 -9.9375 1.828125 -10.109375 1.484375 -10.453125 C 1.148438 -10.796875 0.984375 -11.265625 0.984375 -11.859375 C 0.984375 -12.460938 1.160156 -13.003906 1.515625 -13.484375 C 1.867188 -13.960938 2.359375 -14.335938 2.984375 -14.609375 C 3.609375 -14.890625 4.3125 -15.03125 5.09375 -15.03125 C 5.820312 -15.03125 6.523438 -14.882812 7.203125 -14.59375 C 7.878906 -14.3125 8.429688 -13.863281 8.859375 -13.25 C 9.296875 -12.644531 9.515625 -11.859375 9.515625 -10.890625 C 9.515625 -10.148438 9.285156 -9.304688 8.828125 -8.359375 C 8.378906 -7.410156 7.738281 -6.425781 6.90625 -5.40625 C 6.082031 -4.382812 5.097656 -3.363281 3.953125 -2.34375 L 6.578125 -2.34375 C 7.234375 -2.34375 7.785156 -2.445312 8.234375 -2.65625 C 8.691406 -2.875 9.0625 -3.132812 9.34375 -3.4375 C 9.632812 -3.75 9.832031 -4.039062 9.9375 -4.3125 L 10.015625 -4.296875 L 9.15625 0.28125 C 9 0.09375 8.742188 0 8.390625 0 Z M 0.125 0 "/></g></g></g><g fill="#00bf63" fill-opacity="1"><g transform="translate(199.169944, 261.317971)"><g><path d="M 0.125 0 C 0.738281 -0.59375 1.429688 -1.304688 2.203125 -2.140625 C 2.984375 -2.984375 3.734375 -3.898438 4.453125 -4.890625 C 5.171875 -5.890625 5.765625 -6.914062 6.234375 -7.96875 C 6.703125 -9.019531 6.9375 -10.046875 6.9375 -11.046875 C 6.9375 -11.828125 6.769531 -12.457031 6.4375 -12.9375 C 6.113281 -13.425781 5.640625 -13.671875 5.015625 -13.671875 C 4.535156 -13.671875 4.171875 -13.53125 3.921875 -13.25 C 3.679688 -12.976562 3.5625 -12.695312 3.5625 -12.40625 C 3.5625 -12.144531 3.640625 -11.914062 3.796875 -11.71875 C 3.953125 -11.53125 4.171875 -11.4375 4.453125 -11.4375 C 4.691406 -11.4375 4.867188 -11.523438 4.984375 -11.703125 C 4.921875 -11.128906 4.671875 -10.691406 4.234375 -10.390625 C 3.804688 -10.085938 3.335938 -9.9375 2.828125 -9.9375 C 2.273438 -9.9375 1.828125 -10.109375 1.484375 -10.453125 C 1.148438 -10.796875 0.984375 -11.265625 0.984375 -11.859375 C 0.984375 -12.460938 1.160156 -13.003906 1.515625 -13.484375 C 1.867188 -13.960938 2.359375 -14.335938 2.984375 -14.609375 C 3.609375 -14.890625 4.3125 -15.03125 5.09375 -15.03125 C 5.820312 -15.03125 6.523438 -14.882812 7.203125 -14.59375 C 7.878906 -14.3125 8.429688 -13.863281 8.859375 -13.25 C 9.296875 -12.644531 9.515625 -11.859375 9.515625 -10.890625 C 9.515625 -10.148438 9.285156 -9.304688 8.828125 -8.359375 C 8.378906 -7.410156 7.738281 -6.425781 6.90625 -5.40625 C 6.082031 -4.382812 5.097656 -3.363281 3.953125 -2.34375 L 6.578125 -2.34375 C 7.234375 -2.34375 7.785156 -2.445312 8.234375 -2.65625 C 8.691406 -2.875 9.0625 -3.132812 9.34375 -3.4375 C 9.632812 -3.75 9.832031 -4.039062 9.9375 -4.3125 L 10.015625 -4.296875 L 9.15625 0.28125 C 9 0.09375 8.742188 0 8.390625 0 Z M 0.125 0 "/></g></g></g><g fill="#00bf63" fill-opacity="1"><g transform="translate(148.735226, 230.396879)"><g><path d="M 0.65625 -0.140625 C 1.40625 -0.390625 1.929688 -0.914062 2.234375 -1.71875 C 2.535156 -2.519531 2.6875 -3.796875 2.6875 -5.546875 L 2.6875 -21.265625 C 2.6875 -23.015625 2.535156 -24.289062 2.234375 -25.09375 C 1.929688 -25.894531 1.40625 -26.421875 0.65625 -26.671875 L 0.65625 -26.8125 L 12.328125 -26.8125 C 14.609375 -26.8125 16.4375 -26.195312 17.8125 -24.96875 C 19.195312 -23.75 19.890625 -22.117188 19.890625 -20.078125 C 19.890625 -18.140625 19.238281 -16.519531 17.9375 -15.21875 C 16.632812 -13.914062 14.96875 -13.265625 12.9375 -13.265625 C 11.675781 -13.265625 10.53125 -13.519531 9.5 -14.03125 C 8.46875 -14.550781 7.601562 -15.265625 6.90625 -16.171875 L 6.90625 -5.546875 C 6.90625 -3.796875 7.054688 -2.519531 7.359375 -1.71875 C 7.660156 -0.914062 8.1875 -0.390625 8.9375 -0.140625 L 8.9375 0 L 0.65625 0 Z M 6.90625 -21.015625 C 7.101562 -19.609375 7.613281 -18.460938 8.4375 -17.578125 C 9.269531 -16.703125 10.3125 -16.265625 11.5625 -16.265625 C 12.757812 -16.265625 13.691406 -16.640625 14.359375 -17.390625 C 15.035156 -18.148438 15.375 -19.0625 15.375 -20.125 C 15.375 -21.351562 14.921875 -22.34375 14.015625 -23.09375 C 13.109375 -23.84375 11.914062 -24.21875 10.4375 -24.21875 L 6.90625 -24.21875 Z M 6.90625 -21.015625 "/></g></g></g><g fill="#00bf63" fill-opacity="1"><g transform="translate(169.051039, 230.396879)"><g><path d="M 0.65625 -0.140625 C 1.40625 -0.390625 1.929688 -0.914062 2.234375 -1.71875 C 2.535156 -2.519531 2.6875 -3.796875 2.6875 -5.546875 L 2.6875 -21.265625 C 2.6875 -23.015625 2.535156 -24.289062 2.234375 -25.09375 C 1.929688 -25.894531 1.40625 -26.421875 0.65625 -26.671875 L 0.65625 -26.8125 L 8.9375 -26.8125 L 8.9375 -26.671875 C 8.1875 -26.421875 7.660156 -25.894531 7.359375 -25.09375 C 7.054688 -24.289062 6.90625 -23.015625 6.90625 -21.265625 L 6.90625 -2.828125 L 10.25 -2.828125 C 11.570312 -2.828125 12.753906 -3.15625 13.796875 -3.8125 C 14.847656 -4.46875 15.59375 -5.34375 16.03125 -6.4375 L 16.21875 -6.390625 L 14.953125 0.515625 C 14.734375 0.171875 14.28125 0 13.59375 0 L 0.65625 0 Z M 0.65625 -0.140625 "/></g></g></g><g fill="#00bf63" fill-opacity="1"><g transform="translate(185.463582, 230.396879)"><g><path d="M -0.9375 -0.140625 C -0.3125 -0.359375 0.1875 -0.789062 0.5625 -1.4375 C 0.9375 -2.082031 1.328125 -3.203125 1.734375 -4.796875 L 5.96875 -21.015625 C 6.4375 -22.804688 6.644531 -24.140625 6.59375 -25.015625 C 6.550781 -25.898438 6.265625 -26.453125 5.734375 -26.671875 L 5.734375 -26.8125 L 12.609375 -26.8125 L 18.53125 -4.796875 C 18.90625 -3.296875 19.285156 -2.207031 19.671875 -1.53125 C 20.066406 -0.851562 20.582031 -0.390625 21.21875 -0.140625 L 21.21875 0 L 13.078125 0 L 13.078125 -0.140625 C 13.734375 -0.390625 14.140625 -0.929688 14.296875 -1.765625 C 14.453125 -2.597656 14.3125 -3.859375 13.875 -5.546875 L 13.59375 -6.578125 L 5.59375 -6.578125 L 5.359375 -5.546875 C 4.953125 -3.890625 4.8125 -2.644531 4.9375 -1.8125 C 5.0625 -0.976562 5.46875 -0.421875 6.15625 -0.140625 L 6.15625 0 L -0.9375 0 Z M 6.296875 -9.40625 L 12.890625 -9.40625 L 9.40625 -22.15625 Z M 6.296875 -9.40625 "/></g></g></g><g fill="#00bf63" fill-opacity="1"><g transform="translate(205.732372, 230.396879)"><g><path d="M 6.34375 -0.140625 C 7.101562 -0.390625 7.628906 -0.914062 7.921875 -1.71875 C 8.222656 -2.519531 8.375 -3.796875 8.375 -5.546875 L 8.375 -11.609375 L 3.15625 -22.015625 C 2.300781 -23.703125 1.625 -24.851562 1.125 -25.46875 C 0.625 -26.082031 0.03125 -26.484375 -0.65625 -26.671875 L -0.65625 -26.8125 L 7.53125 -26.8125 L 7.53125 -26.671875 C 6.925781 -26.421875 6.6875 -25.898438 6.8125 -25.109375 C 6.9375 -24.328125 7.441406 -23.046875 8.328125 -21.265625 L 10.90625 -16.03125 L 13.453125 -21.265625 C 14.359375 -23.046875 14.863281 -24.328125 14.96875 -25.109375 C 15.082031 -25.898438 14.84375 -26.421875 14.25 -26.671875 L 14.25 -26.8125 L 21.15625 -26.8125 L 21.15625 -26.671875 C 20.46875 -26.484375 19.863281 -26.082031 19.34375 -25.46875 C 18.832031 -24.851562 18.15625 -23.703125 17.3125 -22.015625 L 12.609375 -12.65625 L 12.609375 -5.546875 C 12.609375 -3.796875 12.753906 -2.519531 13.046875 -1.71875 C 13.347656 -0.914062 13.875 -0.390625 14.625 -0.140625 L 14.625 0 L 6.34375 0 Z M 6.34375 -0.140625 "/></g></g></g></svg>